# xmcd
#
# Track frame offsets:
#	150
#	15523
#	28328
#	43464
#	55933
#	70320
#	79324
#	91731
#	100977
#	114116
#	124561
#	139311
#	150381
#	157608
#	169964
#	182265
#
# Disc length: 2603 seconds
#
# Revision: 0
# Processed by: cddbd v1.5.2PL0 Copyright (c) Steve Scherf et al.
# Submitted via: audiograbber 1.83.01
#
DISCID=c50a2910
DTITLE=Gene Pitney - Greatest Hits [CD2)
DYEAR=2006
DGENRE=Ballad
TTITLE0=Unchained Melody
TTITLE1=Only Love Can Break A Heart
TTITLE2=Love Grows
TTITLE3=Every Breath I Take
TTITLE4=Careless  Love
TTITLE5=I´d Like To See Me Stop You
TTITLE6=Half Heaven Half Heartache
TTITLE7=I´m Going  Back To My Love
TTITLE8=Make Believe Lover
TTITLE9=One Has My Name The Other Has My Heart
TTITLE10=She´s A Heartbreaker
TTITLE11=Someday
TTITLE12=Runaway Lover
TTITLE13=Sommertime Dreamin
TTITLE14=Louisiana Man
TTITLE15=The Man Who Shot Liberty Valance
EXTD=
EXTT0=
EXTT1=
EXTT2=
EXTT3=
EXTT4=
EXTT5=
EXTT6=
EXTT7=
EXTT8=
EXTT9=
EXTT10=
EXTT11=
EXTT12=
EXTT13=
EXTT14=
EXTT15=
PLAYORDER=
